<?xml version="1.0" encoding="UTF-8"?>
<svg xmlns="http://www.w3.org/2000/svg" xmlns:xlink="http://www.w3.org/1999/xlink" width="32pt" height="40pt" viewBox="0 0 32 40" version="1.1">
<g id="surface1">
<path style=" stroke:none;fill-rule:nonzero;fill:rgb(100%,100%,100%);fill-opacity:1;" d="M 27.609375 32.660156 L 27.140625 32.3125 L 29.53125 30.90625 L 31.84375 8.875 L 31.976562 7.601562 L 17.195312 0 L 0 5.980469 L 0.113281 7.230469 L 2.074219 28.996094 L 14.109375 39.980469 L 20.121094 36.441406 L 23.117188 38.929688 L 23.585938 38.640625 L 23.816406 35.160156 L 24.445312 34.785156 L 26.820312 36.648438 L 27.265625 36.375 Z M 27.609375 32.660156 "/>
<path style="fill:none;stroke-width:3;stroke-linecap:butt;stroke-linejoin:bevel;stroke:rgb(0%,0%,0%);stroke-opacity:1;stroke-miterlimit:4;" d="M 1085.019551 266.545594 L 1085.179951 261.234656 L 1085.260151 258.176844 L 1085.580952 244.25575 L 1085.981953 231.461219 L 1086.142354 222.770594 L 1083.094746 221.000281 L 1068.658711 212.953406 L 1064.408101 210.539344 L 1046.282856 200.400281 L 1034.493428 193.801844 L 1033.611226 193.319031 L 1024.869404 188.410438 L 1019.255391 185.272156 L 992.628926 195.169813 L 983.085103 198.710438 L 975.546284 201.526844 L 966.002461 205.067469 L 952.047627 210.217469 L 952.528828 244.738563 L 952.609028 253.751062 L 952.929829 253.912 L 995.676533 279.983875 L 1003.856953 284.972938 L 1013.160176 290.686219 L 1017.972187 293.583094 L 1024.067402 291.088563 L 1033.531025 287.306531 L 1045.160054 282.558875 L 1085.019551 266.545594 " transform="matrix(0.0487062,0,0,0.0485437,-33.831598,-5.075825)"/>
<path style="fill:none;stroke-width:3;stroke-linecap:butt;stroke-linejoin:bevel;stroke:rgb(0%,0%,0%);stroke-opacity:1;stroke-miterlimit:4;" d="M 1086.142354 222.770594 L 1083.014546 223.977625 L 1076.839131 226.391687 L 1045.801655 238.462 L 1018.212788 249.244813 " transform="matrix(0.0487062,0,0,0.0485437,-33.831598,-5.075825)"/>
<path style="fill:none;stroke-width:3;stroke-linecap:butt;stroke-linejoin:bevel;stroke:rgb(0%,0%,0%);stroke-opacity:1;stroke-miterlimit:4;" d="M 1017.972187 293.583094 L 1018.212788 249.244813 L 997.280537 236.933094 L 987.816914 231.300281 L 975.706685 224.138563 L 966.162861 218.586219 L 952.047627 210.217469 " transform="matrix(0.0487062,0,0,0.0485437,-33.831598,-5.075825)"/>
<path style="fill:none;stroke-width:3;stroke-linecap:butt;stroke-linejoin:bevel;stroke:rgb(0%,0%,0%);stroke-opacity:1;stroke-miterlimit:4;" d="M 1196.497822 821.136219 L 1235.715718 852.036219 L 1245.259541 859.519813 L 1254.402363 853.887 L 1258.973774 804.076844 L 1261.45998 777.361219 L 1251.835957 770.1995 L 1211.81606 740.265125 L 1197.460225 729.482313 L 1153.991719 754.10575 L 1110.603413 778.729188 L 1108.678608 828.700281 L 1107.636006 855.254969 L 1107.716206 855.254969 L 1146.1321 887.281531 L 1169.229756 906.513563 L 1178.853779 900.558875 L 1182.141987 850.66825 L 1183.585591 828.861219 L 1196.497822 821.136219 L 1205.560444 815.664344 L 1248.547749 790.075281 L 1251.595356 788.304969 " transform="matrix(0.0487062,0,0,0.0485437,-33.831598,-5.075825)"/>
<path style="fill:none;stroke-width:3;stroke-linecap:butt;stroke-linejoin:bevel;stroke:rgb(0%,0%,0%);stroke-opacity:1;stroke-miterlimit:4;" d="M 1169.229756 906.513563 L 1172.357563 856.622938 L 1174.041768 829.344031 " transform="matrix(0.0487062,0,0,0.0485437,-33.831598,-5.075825)"/>
<path style="fill:none;stroke-width:3;stroke-linecap:butt;stroke-linejoin:bevel;stroke:rgb(0%,0%,0%);stroke-opacity:1;stroke-miterlimit:4;" d="M 1261.45998 777.361219 L 1247.825947 785.488563 L 1204.918843 810.997156 L 1192.808613 818.239344 L 1174.041768 829.344031 L 1164.497944 821.779969 L 1125.440449 790.558094 L 1110.603413 778.729188 " transform="matrix(0.0487062,0,0,0.0485437,-33.831598,-5.075825)"/>
<path style="fill:none;stroke-width:3;stroke-linecap:butt;stroke-linejoin:bevel;stroke:rgb(0%,0%,0%);stroke-opacity:1;stroke-miterlimit:4;" d="M 762.775166 318.850281 L 770.153584 324.08075 L 789.00063 337.277625 L 797.662251 343.39325 L 799.506855 372.764344 L 801.832661 410.826063 " transform="matrix(0.0487062,0,0,0.0485437,-33.831598,-5.075825)"/>
<path style="fill:none;stroke-width:3;stroke-linecap:butt;stroke-linejoin:bevel;stroke:rgb(0%,0%,0%);stroke-opacity:1;stroke-miterlimit:4;" d="M 1251.835957 770.1995 L 1294.903462 744.771375 L 1300.918477 741.23075 L 1306.131489 691.501063 L 1311.264302 641.771375 L 1321.690327 542.312 L 1326.90334 492.662781 L 1347.755391 293.744031 L 1348.396992 287.387 L 1351.123799 261.154188 L 1306.692891 238.301063 L 1084.53835 123.633094 L 1047.64626 104.562 L 1000.408345 121.058094 L 953.17043 137.473719 L 906.012715 153.969812 L 811.536885 186.962 L 764.37917 203.377625 L 717.141255 219.873719 L 694.605 227.759656 L 696.930806 253.509656 L 701.422017 303.319813 L 705.833027 353.129969 L 710.324238 402.859656 L 723.797871 552.290125 L 728.208882 602.100281 L 732.700093 651.910438 L 737.191304 701.881531 L 774.083394 735.678406 L 810.975483 769.394813 L 847.787373 803.191688 L 884.679463 836.908094 L 984.288105 928.159656 L 1070.423115 877.303406 L 1107.716206 855.254969 " transform="matrix(0.0487062,0,0,0.0485437,-33.831598,-5.075825)"/>
<path style="fill:none;stroke-width:3;stroke-linecap:butt;stroke-linejoin:bevel;stroke:rgb(0%,0%,0%);stroke-opacity:1;stroke-miterlimit:4;" d="M 833.110737 721.435438 L 855.807393 741.472156 L 865.992817 750.404188 L 866.393818 759.094813 L 868.479023 804.157313 L 836.158345 774.786219 " transform="matrix(0.0487062,0,0,0.0485437,-33.831598,-5.075825)"/>
<path style="fill:none;stroke-width:3;stroke-linecap:butt;stroke-linejoin:bevel;stroke:rgb(0%,0%,0%);stroke-opacity:1;stroke-miterlimit:4;" d="M 780.499409 724.332313 L 777.451802 684.500281 L 777.291401 682.408094 L 776.73 674.9245 L 776.489399 671.544813 L 770.875386 666.55575 L 765.341572 661.647156 L 757.080952 654.404969 L 746.414326 644.990125 L 750.664937 694.800281 L 750.905537 697.45575 " transform="matrix(0.0487062,0,0,0.0485437,-33.831598,-5.075825)"/>
<path style="fill:none;stroke-width:3;stroke-linecap:butt;stroke-linejoin:bevel;stroke:rgb(0%,0%,0%);stroke-opacity:1;stroke-miterlimit:4;" d="M 925.180562 689.811219 L 946.594014 707.514344 L 961.110249 719.584656 L 962.714253 720.952625 L 962.874653 731.735438 L 963.516255 780.097156 L 926.624165 748.633875 " transform="matrix(0.0487062,0,0,0.0485437,-33.831598,-5.075825)"/>
<path style="fill:none;stroke-width:3;stroke-linecap:butt;stroke-linejoin:bevel;stroke:rgb(0%,0%,0%);stroke-opacity:1;stroke-miterlimit:4;" d="M 772.399189 616.745594 L 771.998188 612.158875 L 769.431782 578.040125 L 768.70998 568.70575 L 768.068379 559.934656 L 766.704976 558.808094 L 756.519551 550.358875 L 748.01833 543.277625 L 737.030903 534.184656 L 741.201313 583.994812 L 741.762715 590.59325 " transform="matrix(0.0487062,0,0,0.0485437,-33.831598,-5.075825)"/>
<path style="fill:none;stroke-width:3;stroke-linecap:butt;stroke-linejoin:bevel;stroke:rgb(0%,0%,0%);stroke-opacity:1;stroke-miterlimit:4;" d="M 826.614521 608.376844 L 850.193379 627.850281 L 850.67458 628.252625 L 859.0154 635.172938 L 860.699604 636.540906 L 860.940205 641.690906 L 861.341206 650.622938 L 863.426411 694.558875 " transform="matrix(0.0487062,0,0,0.0485437,-33.831598,-5.075825)"/>
<path style="fill:none;stroke-width:3;stroke-linecap:butt;stroke-linejoin:bevel;stroke:rgb(0%,0%,0%);stroke-opacity:1;stroke-miterlimit:4;" d="M 763.577168 500.870594 L 760.770161 463.533094 L 760.12856 454.520594 L 759.326558 444.462 L 759.005757 439.472938 L 747.055928 430.2995 L 738.233906 423.540125 L 726.845479 414.8495 L 731.096089 464.659656 L 732.058491 475.603406 " transform="matrix(0.0487062,0,0,0.0485437,-33.831598,-5.075825)"/>
<path style="fill:none;stroke-width:3;stroke-linecap:butt;stroke-linejoin:bevel;stroke:rgb(0%,0%,0%);stroke-opacity:1;stroke-miterlimit:4;" d="M 754.113545 375.661219 L 751.466938 340.013563 L 750.825337 331.483875 L 750.103535 321.827625 L 749.141133 309.2745 L 736.790303 300.503406 L 727.64748 294.146375 L 715.858052 285.858094 L 720.108662 335.66825 L 721.472065 351.601063 " transform="matrix(0.0487062,0,0,0.0485437,-33.831598,-5.075825)"/>
<path style="fill:none;stroke-width:3;stroke-linecap:butt;stroke-linejoin:bevel;stroke:rgb(0%,0%,0%);stroke-opacity:1;stroke-miterlimit:4;" d="M 762.775166 318.850281 L 763.336567 326.65575 L 766.464375 370.752625 L 767.506978 385.558875 " transform="matrix(0.0487062,0,0,0.0485437,-33.831598,-5.075825)"/>
<path style="fill:none;stroke-width:3;stroke-linecap:butt;stroke-linejoin:bevel;stroke:rgb(0%,0%,0%);stroke-opacity:1;stroke-miterlimit:4;" d="M 851.957783 447.761219 L 850.51418 416.619813 L 850.113179 407.848719 L 850.032979 406.963563 L 848.749775 379.362781 L 847.707173 378.638563 L 837.361348 371.396375 L 828.298726 364.958875 L 819.236104 358.601844 L 812.018086 353.532312 L 814.905293 403.422938 L 814.985493 405.354188 L 815.867695 420.884656 L 815.867695 421.206531 " transform="matrix(0.0487062,0,0,0.0485437,-33.831598,-5.075825)"/>
<path style="fill:none;stroke-width:3;stroke-linecap:butt;stroke-linejoin:bevel;stroke:rgb(0%,0%,0%);stroke-opacity:1;stroke-miterlimit:4;" d="M 904.729512 486.627625 L 903.686909 451.945594 L 903.366108 442.772156 L 903.366108 441.887 L 902.644307 417.263563 L 888.288472 407.204969 L 882.594258 403.181531 L 875.13564 397.951063 L 873.611836 396.8245 L 866.153218 391.594031 L 863.907612 389.984656 L 865.992817 439.95575 L 866.073018 441.726063 L 866.714619 458.6245 " transform="matrix(0.0487062,0,0,0.0485437,-33.831598,-5.075825)"/>
<path style="fill:none;stroke-width:3;stroke-linecap:butt;stroke-linejoin:bevel;stroke:rgb(0%,0%,0%);stroke-opacity:1;stroke-miterlimit:4;" d="M 960.308247 527.586219 L 960.228047 524.528406 L 959.746846 482.362781 L 959.746846 482.282313 L 959.586445 472.062781 L 959.426045 457.256531 L 957.58144 456.0495 L 941.782002 444.864344 L 936.408589 441.082313 L 927.506367 434.80575 L 918.523945 428.529188 L 918.924946 444.301063 L 919.807148 479.86825 L 920.28835 498.134656 " transform="matrix(0.0487062,0,0,0.0485437,-33.831598,-5.075825)"/>
<path style="fill:none;stroke-width:3;stroke-linecap:butt;stroke-linejoin:bevel;stroke:rgb(0%,0%,0%);stroke-opacity:1;stroke-miterlimit:4;" d="M 1319.364521 259.544813 L 1301.961079 267.108875 L 1284.317036 274.753406 L 1279.825825 276.684656 L 1261.780781 284.490125 L 1251.916157 288.754969 L 1247.505146 290.686219 L 1229.700703 298.411219 L 1218.633076 303.158875 L 1186.953999 316.838563 L 1146.773701 334.219812 L 1115.976826 347.577625 L 1109.881611 350.233094 L 1095.605977 356.348719 L 1094.884175 356.670594 L 1079.565938 363.3495 L 1065.530903 369.384656 L 1064.809102 369.706531 L 1043.876851 378.7995 L 997.922139 398.675281 L 985.410908 404.066688 L 945.07021 376.948719 L 935.927388 370.913563 L 935.045186 370.269813 L 925.902363 364.154188 L 917.641743 358.601844 L 908.498921 352.486219 L 890.052876 340.094031 L 880.910054 333.978406 L 839.366353 306.136219 L 831.185933 300.664344 L 821.96291 294.46825 L 804.800068 282.961219 L 795.577046 276.765125 L 784.509419 269.281531 L 775.206196 263.085438 L 767.988179 258.257313 L 758.765156 252.061219 L 740.559712 239.829969 L 724.840474 229.288563 " transform="matrix(0.0487062,0,0,0.0485437,-33.831598,-5.075825)"/>
<path style="fill:none;stroke-width:3;stroke-linecap:butt;stroke-linejoin:bevel;stroke:rgb(0%,0%,0%);stroke-opacity:1;stroke-miterlimit:4;" d="M 981.481099 423.057313 L 981.481099 428.609656 L 981.641499 451.060438 L 981.8821 501.031531 L 981.9623 517.447156 L 982.283101 564.84325 L 982.523701 614.894813 L 982.764302 648.691688 L 983.004902 689.972156 L 983.245503 739.94325 L 983.405903 769.314344 L 983.646504 805.203406 L 983.887104 855.254969 L 984.047505 880.522156 L 984.288105 928.159656 " transform="matrix(0.0487062,0,0,0.0485437,-33.831598,-5.075825)"/>
<path style="fill:none;stroke-width:3;stroke-linecap:butt;stroke-linejoin:bevel;stroke:rgb(0%,0%,0%);stroke-opacity:1;stroke-miterlimit:4;" d="M 1079.966938 497.2495 L 1080.127339 492.501844 L 1080.207539 488.156531 L 1080.367939 484.454969 L 1080.60854 472.867469 L 1081.009541 459.751063 L 1081.570942 437.863563 L 1081.651143 433.598719 L 1081.811543 427.7245 L 1093.681172 422.333094 L 1119.505635 410.584656 L 1128.568257 406.561219 L 1131.295063 405.273719 " transform="matrix(0.0487062,0,0,0.0485437,-33.831598,-5.075825)"/>
<path style="fill:none;stroke-width:3;stroke-linecap:butt;stroke-linejoin:bevel;stroke:rgb(0%,0%,0%);stroke-opacity:1;stroke-miterlimit:4;" d="M 928.067769 805.122938 L 948.679219 823.228406 L 962.634053 835.540125 L 964.238057 836.908094 L 964.238057 842.138563 L 964.879658 891.546375 " transform="matrix(0.0487062,0,0,0.0485437,-33.831598,-5.075825)"/>
<path style="fill:none;stroke-width:3;stroke-linecap:butt;stroke-linejoin:bevel;stroke:rgb(0%,0%,0%);stroke-opacity:1;stroke-miterlimit:4;" d="M 962.714253 840.770594 L 929.431172 859.358875 " transform="matrix(0.0487062,0,0,0.0485437,-33.831598,-5.075825)"/>
<path style="fill:none;stroke-width:3;stroke-linecap:butt;stroke-linejoin:bevel;stroke:rgb(0%,0%,0%);stroke-opacity:1;stroke-miterlimit:4;" d="M 881.712056 816.147156 L 915.556538 846.80575 L 914.112935 798.685438 L 913.952534 792.650281 L 901.200703 781.384656 L 879.46645 762.233094 " transform="matrix(0.0487062,0,0,0.0485437,-33.831598,-5.075825)"/>
<path style="fill:none;stroke-width:3;stroke-linecap:butt;stroke-linejoin:bevel;stroke:rgb(0%,0%,0%);stroke-opacity:1;stroke-miterlimit:4;" d="M 792.609639 735.276063 L 823.566914 763.359656 L 820.920308 721.033094 L 820.278706 710.089344 L 812.419087 703.169031 L 788.840229 682.327625 " transform="matrix(0.0487062,0,0,0.0485437,-33.831598,-5.075825)"/>
<path style="fill:none;stroke-width:3;stroke-linecap:butt;stroke-linejoin:bevel;stroke:rgb(0%,0%,0%);stroke-opacity:1;stroke-miterlimit:4;" d="M 777.451802 684.500281 L 750.905537 697.45575 L 780.499409 724.332313 " transform="matrix(0.0487062,0,0,0.0485437,-33.831598,-5.075825)"/>
<path style="fill:none;stroke-width:3;stroke-linecap:butt;stroke-linejoin:bevel;stroke:rgb(0%,0%,0%);stroke-opacity:1;stroke-miterlimit:4;" d="M 788.840229 682.327625 L 791.406636 718.860438 L 792.609639 735.276063 L 820.920308 721.033094 " transform="matrix(0.0487062,0,0,0.0485437,-33.831598,-5.075825)"/>
<path style="fill:none;stroke-width:3;stroke-linecap:butt;stroke-linejoin:bevel;stroke:rgb(0%,0%,0%);stroke-opacity:1;stroke-miterlimit:4;" d="M 833.110737 721.435438 L 835.195942 757.3245 L 836.158345 774.786219 L 866.393818 759.094813 " transform="matrix(0.0487062,0,0,0.0485437,-33.831598,-5.075825)"/>
<path style="fill:none;stroke-width:3;stroke-linecap:butt;stroke-linejoin:bevel;stroke:rgb(0%,0%,0%);stroke-opacity:1;stroke-miterlimit:4;" d="M 879.46645 762.233094 L 880.990254 797.478406 L 881.712056 816.147156 L 914.112935 798.685438 " transform="matrix(0.0487062,0,0,0.0485437,-33.831598,-5.075825)"/>
<path style="fill:none;stroke-width:3;stroke-linecap:butt;stroke-linejoin:bevel;stroke:rgb(0%,0%,0%);stroke-opacity:1;stroke-miterlimit:4;" d="M 928.067769 805.122938 L 928.949971 839.402625 L 929.431172 859.358875 L 964.879658 891.546375 " transform="matrix(0.0487062,0,0,0.0485437,-33.831598,-5.075825)"/>
<path style="fill:none;stroke-width:3;stroke-linecap:butt;stroke-linejoin:bevel;stroke:rgb(0%,0%,0%);stroke-opacity:1;stroke-miterlimit:4;" d="M 961.270649 730.367469 L 926.624165 748.633875 L 926.142964 729.079969 L 925.180562 689.811219 " transform="matrix(0.0487062,0,0,0.0485437,-33.831598,-5.075825)"/>
<path style="fill:none;stroke-width:3;stroke-linecap:butt;stroke-linejoin:bevel;stroke:rgb(0%,0%,0%);stroke-opacity:1;stroke-miterlimit:4;" d="M 877.140645 706.307313 L 912.26833 736.322156 L 910.824727 689.247938 L 910.503926 677.740906 L 897.270894 666.716688 L 874.734639 648.128406 " transform="matrix(0.0487062,0,0,0.0485437,-33.831598,-5.075825)"/>
<path style="fill:none;stroke-width:3;stroke-linecap:butt;stroke-linejoin:bevel;stroke:rgb(0%,0%,0%);stroke-opacity:1;stroke-miterlimit:4;" d="M 829.902729 665.912 L 863.426411 694.558875 " transform="matrix(0.0487062,0,0,0.0485437,-33.831598,-5.075825)"/>
<path style="fill:none;stroke-width:3;stroke-linecap:butt;stroke-linejoin:bevel;stroke:rgb(0%,0%,0%);stroke-opacity:1;stroke-miterlimit:4;" d="M 784.83022 627.447938 L 800.469258 640.725281 L 808.729878 647.887 L 816.830098 654.726844 L 814.343892 613.526844 L 813.301289 597.352625 L 805.201069 590.59325 L 780.82021 570.395594 " transform="matrix(0.0487062,0,0,0.0485437,-33.831598,-5.075825)"/>
<path style="fill:none;stroke-width:3;stroke-linecap:butt;stroke-linejoin:bevel;stroke:rgb(0%,0%,0%);stroke-opacity:1;stroke-miterlimit:4;" d="M 769.431782 578.040125 L 741.762715 590.59325 L 772.399189 616.745594 " transform="matrix(0.0487062,0,0,0.0485437,-33.831598,-5.075825)"/>
<path style="fill:none;stroke-width:3;stroke-linecap:butt;stroke-linejoin:bevel;stroke:rgb(0%,0%,0%);stroke-opacity:1;stroke-miterlimit:4;" d="M 874.734639 648.128406 L 876.338643 688.121375 L 877.140645 706.307313 L 910.824727 689.247938 " transform="matrix(0.0487062,0,0,0.0485437,-33.831598,-5.075825)"/>
<path style="fill:none;stroke-width:3;stroke-linecap:butt;stroke-linejoin:bevel;stroke:rgb(0%,0%,0%);stroke-opacity:1;stroke-miterlimit:4;" d="M 872.168232 587.535438 L 895.90749 606.526062 L 904.328511 613.204969 L 908.659321 616.665125 L 908.498921 611.19325 L 908.17812 600.571375 L 907.215718 570.958875 L 906.894917 559.934656 L 906.734517 553.014344 L 903.767109 550.761219 L 892.940083 542.472938 L 869.521626 524.447937 " transform="matrix(0.0487062,0,0,0.0485437,-33.831598,-5.075825)"/>
<path style="fill:none;stroke-width:3;stroke-linecap:butt;stroke-linejoin:bevel;stroke:rgb(0%,0%,0%);stroke-opacity:1;stroke-miterlimit:4;" d="M 823.165913 548.427625 L 856.930195 575.384656 L 857.892598 576.189344 L 857.812397 573.453406 L 855.967793 533.540906 L 855.727192 529.356531 L 855.326191 520.183094 L 855.005391 513.262781 L 853.962788 512.458094 L 844.017964 504.894031 L 821.72231 487.673719 L 819.637104 486.064344 " transform="matrix(0.0487062,0,0,0.0485437,-33.831598,-5.075825)"/>
<path style="fill:none;stroke-width:3;stroke-linecap:butt;stroke-linejoin:bevel;stroke:rgb(0%,0%,0%);stroke-opacity:1;stroke-miterlimit:4;" d="M 776.5696 511.170594 L 792.689839 524.045594 L 801.27126 530.885437 L 809.61208 537.644813 L 807.206074 497.812781 L 805.842671 475.522938 L 797.42165 469.085438 L 772.158589 449.612 " transform="matrix(0.0487062,0,0,0.0485437,-33.831598,-5.075825)"/>
<path style="fill:none;stroke-width:3;stroke-linecap:butt;stroke-linejoin:bevel;stroke:rgb(0%,0%,0%);stroke-opacity:1;stroke-miterlimit:4;" d="M 760.770161 463.533094 L 732.058491 475.603406 L 763.577168 500.870594 " transform="matrix(0.0487062,0,0,0.0485437,-33.831598,-5.075825)"/>
<path style="fill:none;stroke-width:3;stroke-linecap:butt;stroke-linejoin:bevel;stroke:rgb(0%,0%,0%);stroke-opacity:1;stroke-miterlimit:4;" d="M 780.82021 570.395594 L 783.707417 611.434656 L 784.83022 627.447938 L 799.105854 620.688563 L 806.805073 617.067469 L 814.343892 613.526844 " transform="matrix(0.0487062,0,0,0.0485437,-33.831598,-5.075825)"/>
<path style="fill:none;stroke-width:3;stroke-linecap:butt;stroke-linejoin:bevel;stroke:rgb(0%,0%,0%);stroke-opacity:1;stroke-miterlimit:4;" d="M 826.614521 608.376844 L 828.378926 638.954969 L 828.940327 648.933094 L 829.020527 649.657313 L 829.902729 665.912 L 861.341206 650.622938 " transform="matrix(0.0487062,0,0,0.0485437,-33.831598,-5.075825)"/>
<path style="fill:none;stroke-width:3;stroke-linecap:butt;stroke-linejoin:bevel;stroke:rgb(0%,0%,0%);stroke-opacity:1;stroke-miterlimit:4;" d="M 957.982441 481.075281 L 935.766987 491.133875 L 921.090352 497.732313 L 920.28835 498.134656 L 921.170552 498.697938 L 960.308247 527.586219 " transform="matrix(0.0487062,0,0,0.0485437,-33.831598,-5.075825)"/>
<path style="fill:none;stroke-width:3;stroke-linecap:butt;stroke-linejoin:bevel;stroke:rgb(0%,0%,0%);stroke-opacity:1;stroke-miterlimit:4;" d="M 903.366108 442.772156 L 866.714619 458.6245 L 904.729512 486.627625 " transform="matrix(0.0487062,0,0,0.0485437,-33.831598,-5.075825)"/>
<path style="fill:none;stroke-width:3;stroke-linecap:butt;stroke-linejoin:bevel;stroke:rgb(0%,0%,0%);stroke-opacity:1;stroke-miterlimit:4;" d="M 850.032979 406.963563 L 815.867695 421.206531 L 824.529316 427.563563 L 851.957783 447.761219 " transform="matrix(0.0487062,0,0,0.0485437,-33.831598,-5.075825)"/>
<path style="fill:none;stroke-width:3;stroke-linecap:butt;stroke-linejoin:bevel;stroke:rgb(0%,0%,0%);stroke-opacity:1;stroke-miterlimit:4;" d="M 799.506855 372.764344 L 788.198628 377.270594 L 782.985615 379.362781 L 767.506978 385.558875 L 784.268818 397.870594 L 793.17104 404.388563 L 801.832661 410.826063 " transform="matrix(0.0487062,0,0,0.0485437,-33.831598,-5.075825)"/>
<path style="fill:none;stroke-width:3;stroke-linecap:butt;stroke-linejoin:bevel;stroke:rgb(0%,0%,0%);stroke-opacity:1;stroke-miterlimit:4;" d="M 751.466938 340.013563 L 721.472065 351.601063 L 754.113545 375.661219 " transform="matrix(0.0487062,0,0,0.0485437,-33.831598,-5.075825)"/>
<path style="fill:none;stroke-width:3;stroke-linecap:butt;stroke-linejoin:bevel;stroke:rgb(0%,0%,0%);stroke-opacity:1;stroke-miterlimit:4;" d="M 772.158589 449.612 L 775.446797 495.720594 L 776.5696 511.170594 L 791.406636 504.652625 L 799.346455 501.192469 L 807.206074 497.812781 " transform="matrix(0.0487062,0,0,0.0485437,-33.831598,-5.075825)"/>
<path style="fill:none;stroke-width:3;stroke-linecap:butt;stroke-linejoin:bevel;stroke:rgb(0%,0%,0%);stroke-opacity:1;stroke-miterlimit:4;" d="M 819.637104 486.064344 L 822.283711 531.931531 L 822.363911 533.782312 L 822.925312 544.162781 L 823.165913 548.427625 L 855.967793 533.540906 " transform="matrix(0.0487062,0,0,0.0485437,-33.831598,-5.075825)"/>
<path style="fill:none;stroke-width:3;stroke-linecap:butt;stroke-linejoin:bevel;stroke:rgb(0%,0%,0%);stroke-opacity:1;stroke-miterlimit:4;" d="M 869.521626 524.447937 L 871.446431 569.832313 L 872.168232 587.535438 L 907.215718 570.958875 " transform="matrix(0.0487062,0,0,0.0485437,-33.831598,-5.075825)"/>
<path style="fill:none;stroke-width:3;stroke-linecap:butt;stroke-linejoin:bevel;stroke:rgb(0%,0%,0%);stroke-opacity:1;stroke-miterlimit:4;" d="M 961.992451 659.233094 L 961.35085 612.239344 L 961.190449 594.858094 L 959.666646 593.731531 L 959.426045 593.490125 L 953.892231 589.225281 L 945.391011 582.707313 L 944.268208 581.902625 L 939.135396 577.959656 L 930.553975 571.361219 L 922.774556 565.406531 L 921.972554 564.762781 L 923.015156 604.192469 L 923.095356 609.583875 L 923.576558 628.5745 " transform="matrix(0.0487062,0,0,0.0485437,-33.831598,-5.075825)"/>
<path style="fill:none;stroke-width:3;stroke-linecap:butt;stroke-linejoin:bevel;stroke:rgb(0%,0%,0%);stroke-opacity:1;stroke-miterlimit:4;" d="M 1008.749165 783.396375 L 1008.829365 769.55575 L 1008.989766 724.171375 L 1045.962056 704.456531 L 1056.468281 698.904188 " transform="matrix(0.0487062,0,0,0.0485437,-33.831598,-5.075825)"/>
<path style="fill:none;stroke-width:3;stroke-linecap:butt;stroke-linejoin:bevel;stroke:rgb(0%,0%,0%);stroke-opacity:1;stroke-miterlimit:4;" d="M 1195.69582 680.476844 L 1196.658223 666.877625 L 1196.658223 666.072938 L 1197.861226 647.887 L 1199.064229 630.183875 L 1199.62563 622.619813 L 1222.242085 610.5495 L 1230.262104 606.284656 L 1239.645527 601.295594 L 1241.730732 600.169031 " transform="matrix(0.0487062,0,0,0.0485437,-33.831598,-5.075825)"/>
<path style="fill:none;stroke-width:3;stroke-linecap:butt;stroke-linejoin:bevel;stroke:rgb(0%,0%,0%);stroke-opacity:1;stroke-miterlimit:4;" d="M 1009.150166 662.451844 L 1009.230366 648.933094 L 1009.390767 598.962 L 1009.390767 597.996375 L 1047.967061 578.925281 L 1051.255269 577.235437 L 1058.874287 573.533875 " transform="matrix(0.0487062,0,0,0.0485437,-33.831598,-5.075825)"/>
<path style="fill:none;stroke-width:3;stroke-linecap:butt;stroke-linejoin:bevel;stroke:rgb(0%,0%,0%);stroke-opacity:1;stroke-miterlimit:4;" d="M 1009.631367 530.644031 L 1009.631367 517.688562 L 1009.711567 511.814344 L 1009.711567 501.514344 L 1009.871968 460.314344 L 1031.044819 450.738563 L 1042.914448 445.347156 L 1050.132466 442.047938 L 1060.07729 437.541688 L 1061.601094 436.897938 " transform="matrix(0.0487062,0,0,0.0485437,-33.831598,-5.075825)"/>
<path style="fill:none;stroke-width:3;stroke-linecap:butt;stroke-linejoin:bevel;stroke:rgb(0%,0%,0%);stroke-opacity:1;stroke-miterlimit:4;" d="M 1049.250264 499.100281 L 1051.97707 500.951063 L 1058.794087 505.698719 L 1060.23769 506.664344 " transform="matrix(0.0487062,0,0,0.0485437,-33.831598,-5.075825)"/>
<path style="fill:none;stroke-width:3;stroke-linecap:butt;stroke-linejoin:bevel;stroke:rgb(0%,0%,0%);stroke-opacity:1;stroke-miterlimit:4;" d="M 1009.631367 530.644031 L 1022.383198 524.608875 L 1030.323018 520.826844 L 1031.12502 520.4245 L 1058.713887 507.388563 L 1060.23769 506.664344 L 1060.718892 479.304969 L 1061.360493 446.715125 L 1061.601094 436.897938 " transform="matrix(0.0487062,0,0,0.0485437,-33.831598,-5.075825)"/>
<path style="fill:none;stroke-width:3;stroke-linecap:butt;stroke-linejoin:bevel;stroke:rgb(0%,0%,0%);stroke-opacity:1;stroke-miterlimit:4;" d="M 1117.42043 466.99325 L 1125.84145 472.626063 L 1128.488057 474.315906 " transform="matrix(0.0487062,0,0,0.0485437,-33.831598,-5.075825)"/>
<path style="fill:none;stroke-width:3;stroke-linecap:butt;stroke-linejoin:bevel;stroke:rgb(0%,0%,0%);stroke-opacity:1;stroke-miterlimit:4;" d="M 1079.966938 497.2495 L 1084.217549 495.31825 L 1113.41042 481.397156 L 1125.76125 475.603406 L 1128.488057 474.315906 L 1128.808857 465.786219 L 1130.894063 415.895594 L 1131.054463 411.550281 L 1131.295063 405.273719 " transform="matrix(0.0487062,0,0,0.0485437,-33.831598,-5.075825)"/>
<path style="fill:none;stroke-width:3;stroke-linecap:butt;stroke-linejoin:bevel;stroke:rgb(0%,0%,0%);stroke-opacity:1;stroke-miterlimit:4;" d="M 1147.415303 465.303406 L 1147.816304 456.854188 L 1148.056904 452.589344 L 1149.420308 423.137781 L 1150.54311 399.801844 L 1150.703511 396.502625 L 1158.883931 392.801063 L 1167.224751 389.019031 L 1185.991597 380.489344 L 1198.101826 375.017469 " transform="matrix(0.0487062,0,0,0.0485437,-33.831598,-5.075825)"/>
<path style="fill:none;stroke-width:3;stroke-linecap:butt;stroke-linejoin:bevel;stroke:rgb(0%,0%,0%);stroke-opacity:1;stroke-miterlimit:4;" d="M 1182.783589 436.254188 L 1193.931416 443.254969 " transform="matrix(0.0487062,0,0,0.0485437,-33.831598,-5.075825)"/>
<path style="fill:none;stroke-width:3;stroke-linecap:butt;stroke-linejoin:bevel;stroke:rgb(0%,0%,0%);stroke-opacity:1;stroke-miterlimit:4;" d="M 1147.415303 465.303406 L 1155.515522 461.440906 L 1186.713398 446.715125 L 1193.931416 443.254969 L 1196.979023 393.364344 L 1198.101826 375.58075 L 1198.101826 375.017469 " transform="matrix(0.0487062,0,0,0.0485437,-33.831598,-5.075825)"/>
<path style="fill:none;stroke-width:3;stroke-linecap:butt;stroke-linejoin:bevel;stroke:rgb(0%,0%,0%);stroke-opacity:1;stroke-miterlimit:4;" d="M 1212.13686 434.644813 L 1212.537861 429.253406 L 1213.019063 422.091688 L 1214.382466 401.089344 L 1216.467671 369.465125 L 1216.708271 366.648719 L 1245.259541 353.612781 L 1249.750752 351.601063 L 1262.181782 346.048719 " transform="matrix(0.0487062,0,0,0.0485437,-33.831598,-5.075825)"/>
<path style="fill:none;stroke-width:3;stroke-linecap:butt;stroke-linejoin:bevel;stroke:rgb(0%,0%,0%);stroke-opacity:1;stroke-miterlimit:4;" d="M 1245.500142 406.722156 L 1250.472554 409.6995 L 1256.728169 413.481531 " transform="matrix(0.0487062,0,0,0.0485437,-33.831598,-5.075825)"/>
<path style="fill:none;stroke-width:3;stroke-linecap:butt;stroke-linejoin:bevel;stroke:rgb(0%,0%,0%);stroke-opacity:1;stroke-miterlimit:4;" d="M 1212.13686 434.644813 L 1217.269673 432.23075 L 1237.640522 422.494031 L 1256.728169 413.481531 L 1257.28957 406.48075 L 1260.818379 362.625281 L 1262.181782 346.048719 " transform="matrix(0.0487062,0,0,0.0485437,-33.831598,-5.075825)"/>
<path style="fill:none;stroke-width:3;stroke-linecap:butt;stroke-linejoin:bevel;stroke:rgb(0%,0%,0%);stroke-opacity:1;stroke-miterlimit:4;" d="M 1274.211812 405.19325 L 1274.372212 403.664344 L 1275.254414 392.720594 L 1277.099019 371.959656 L 1279.745625 340.737781 L 1279.986226 337.921375 L 1288.327046 334.139344 L 1310.943501 323.919813 L 1320.647725 319.5745 L 1323.615132 318.206531 " transform="matrix(0.0487062,0,0,0.0485437,-33.831598,-5.075825)"/>
<path style="fill:none;stroke-width:3;stroke-linecap:butt;stroke-linejoin:bevel;stroke:rgb(0%,0%,0%);stroke-opacity:1;stroke-miterlimit:4;" d="M 959.666646 610.871375 L 923.576558 628.5745 L 961.992451 659.233094 " transform="matrix(0.0487062,0,0,0.0485437,-33.831598,-5.075825)"/>
<path style="fill:none;stroke-width:3;stroke-linecap:butt;stroke-linejoin:bevel;stroke:rgb(0%,0%,0%);stroke-opacity:1;stroke-miterlimit:4;" d="M 1283.033833 619.722938 L 1293.299458 626.64325 " transform="matrix(0.0487062,0,0,0.0485437,-33.831598,-5.075825)"/>
<path style="fill:none;stroke-width:3;stroke-linecap:butt;stroke-linejoin:bevel;stroke:rgb(0%,0%,0%);stroke-opacity:1;stroke-miterlimit:4;" d="M 1253.439961 648.691688 L 1293.299458 626.64325 L 1298.19167 576.913563 L 1298.913472 569.671375 L 1296.106465 571.200281 L 1287.124043 575.947937 L 1269.3998 585.44325 L 1266.111592 587.213562 L 1258.332173 591.317469 L 1256.487568 612.722156 L 1254.723164 633.000281 L 1254.562764 635.253406 L 1253.439961 648.691688 " transform="matrix(0.0487062,0,0,0.0485437,-33.831598,-5.075825)"/>
<path style="fill:none;stroke-width:3;stroke-linecap:butt;stroke-linejoin:bevel;stroke:rgb(0%,0%,0%);stroke-opacity:1;stroke-miterlimit:4;" d="M 1195.69582 680.476844 L 1219.435078 667.360438 L 1222.643086 665.590125 L 1237.159321 657.623719 " transform="matrix(0.0487062,0,0,0.0485437,-33.831598,-5.075825)"/>
<path style="fill:none;stroke-width:3;stroke-linecap:butt;stroke-linejoin:bevel;stroke:rgb(0%,0%,0%);stroke-opacity:1;stroke-miterlimit:4;" d="M 1182.382588 631.79325 L 1178.292378 633.965906 L 1171.154561 637.747938 L 1168.668354 639.115906 L 1163.294941 641.932313 L 1153.831318 647.001844 L 1149.821309 649.094031 L 1138.513081 655.129188 L 1136.427876 699.789344 L 1135.786274 713.469031 L 1178.853779 689.73075 " transform="matrix(0.0487062,0,0,0.0485437,-33.831598,-5.075825)"/>
<path style="fill:none;stroke-width:3;stroke-linecap:butt;stroke-linejoin:bevel;stroke:rgb(0%,0%,0%);stroke-opacity:1;stroke-miterlimit:4;" d="M 1120.628438 664.704969 L 1109.801411 670.41825 L 1075.074727 688.926063 L 1073.871724 733.988563 L 1073.550923 747.748719 L 1117.340229 723.608094 L 1118.302632 723.125281 " transform="matrix(0.0487062,0,0,0.0485437,-33.831598,-5.075825)"/>
<path style="fill:none;stroke-width:3;stroke-linecap:butt;stroke-linejoin:bevel;stroke:rgb(0%,0%,0%);stroke-opacity:1;stroke-miterlimit:4;" d="M 1008.749165 783.396375 L 1052.538472 759.25575 L 1055.265278 757.807313 " transform="matrix(0.0487062,0,0,0.0485437,-33.831598,-5.075825)"/>
<path style="fill:none;stroke-width:3;stroke-linecap:butt;stroke-linejoin:bevel;stroke:rgb(0%,0%,0%);stroke-opacity:1;stroke-miterlimit:4;" d="M 1045.240254 749.679969 L 1055.265278 757.807313 L 1056.307881 707.75575 L 1056.468281 698.904188 " transform="matrix(0.0487062,0,0,0.0485437,-33.831598,-5.075825)"/>
<path style="fill:none;stroke-width:3;stroke-linecap:butt;stroke-linejoin:bevel;stroke:rgb(0%,0%,0%);stroke-opacity:1;stroke-miterlimit:4;" d="M 1108.117207 715.239344 L 1118.302632 723.125281 L 1120.307637 673.154188 L 1120.628438 664.704969 " transform="matrix(0.0487062,0,0,0.0485437,-33.831598,-5.075825)"/>
<path style="fill:none;stroke-width:3;stroke-linecap:butt;stroke-linejoin:bevel;stroke:rgb(0%,0%,0%);stroke-opacity:1;stroke-miterlimit:4;" d="M 1168.588154 682.166688 L 1178.853779 689.73075 L 1179.976582 671.142469 L 1182.382588 631.79325 " transform="matrix(0.0487062,0,0,0.0485437,-33.831598,-5.075825)"/>
<path style="fill:none;stroke-width:3;stroke-linecap:butt;stroke-linejoin:bevel;stroke:rgb(0%,0%,0%);stroke-opacity:1;stroke-miterlimit:4;" d="M 1310.783101 448.887781 L 1307.895894 450.336219 L 1298.592671 454.922938 L 1276.778218 465.70575 L 1273.891011 467.154188 L 1268.677998 469.729188 L 1266.352192 497.008094 L 1264.507588 518.734656 L 1264.186787 522.597156 L 1263.384785 531.690125 L 1304.768086 510.446375 " transform="matrix(0.0487062,0,0,0.0485437,-33.831598,-5.075825)"/>
<path style="fill:none;stroke-width:3;stroke-linecap:butt;stroke-linejoin:bevel;stroke:rgb(0%,0%,0%);stroke-opacity:1;stroke-miterlimit:4;" d="M 1251.515156 478.178406 L 1239.645527 484.133094 L 1219.675679 493.950281 L 1207.80605 499.8245 L 1206.442646 519.861219 L 1204.918843 542.472938 L 1204.517842 549.312781 L 1203.63564 562.429188 L 1221.279683 553.336219 L 1228.176899 549.795594 L 1246.542744 540.38075 " transform="matrix(0.0487062,0,0,0.0485437,-33.831598,-5.075825)"/>
<path style="fill:none;stroke-width:3;stroke-linecap:butt;stroke-linejoin:bevel;stroke:rgb(0%,0%,0%);stroke-opacity:1;stroke-miterlimit:4;" d="M 1189.921406 508.676063 L 1189.600605 508.837 L 1178.292378 514.469812 L 1175.645771 515.757313 L 1169.470356 518.815125 L 1160.247334 523.401844 L 1144.367695 531.207313 L 1144.127095 536.115906 L 1142.763691 565.004188 L 1142.04189 581.178406 L 1141.640889 589.627625 L 1141.400288 594.45575 L 1149.179707 590.432312 L 1186.071797 571.441688 " transform="matrix(0.0487062,0,0,0.0485437,-33.831598,-5.075825)"/>
<path style="fill:none;stroke-width:3;stroke-linecap:butt;stroke-linejoin:bevel;stroke:rgb(0%,0%,0%);stroke-opacity:1;stroke-miterlimit:4;" d="M 1125.76125 540.461219 L 1122.874043 541.909656 L 1114.453022 546.013563 L 1103.064595 551.646375 L 1094.082173 556.072156 L 1089.671162 558.244812 L 1079.405537 563.314344 L 1078.282734 563.877625 L 1077.961934 576.108875 L 1077.881733 580.29325 L 1077.560933 591.88075 L 1077.480732 596.387 L 1076.999531 614.412 L 1076.67873 627.769813 L 1102.342793 614.492469 L 1120.548237 605.158094 L 1123.194844 603.790125 " transform="matrix(0.0487062,0,0,0.0485437,-33.831598,-5.075825)"/>
<path style="fill:none;stroke-width:3;stroke-linecap:butt;stroke-linejoin:bevel;stroke:rgb(0%,0%,0%);stroke-opacity:1;stroke-miterlimit:4;" d="M 1009.150166 662.451844 L 1053.661274 639.598719 L 1057.671284 637.506531 " transform="matrix(0.0487062,0,0,0.0485437,-33.831598,-5.075825)"/>
<path style="fill:none;stroke-width:3;stroke-linecap:butt;stroke-linejoin:bevel;stroke:rgb(0%,0%,0%);stroke-opacity:1;stroke-miterlimit:4;" d="M 1305.810688 378.397156 L 1317.038716 384.834656 " transform="matrix(0.0487062,0,0,0.0485437,-33.831598,-5.075825)"/>
<path style="fill:none;stroke-width:3;stroke-linecap:butt;stroke-linejoin:bevel;stroke:rgb(0%,0%,0%);stroke-opacity:1;stroke-miterlimit:4;" d="M 1274.211812 405.19325 L 1317.038716 384.834656 L 1321.930928 335.104969 L 1323.615132 318.206531 " transform="matrix(0.0487062,0,0,0.0485437,-33.831598,-5.075825)"/>
<path style="fill:none;stroke-width:3;stroke-linecap:butt;stroke-linejoin:bevel;stroke:rgb(0%,0%,0%);stroke-opacity:1;stroke-miterlimit:4;" d="M 1047.165059 629.620594 L 1057.671284 637.506531 L 1058.633687 587.535438 L 1058.713887 582.707313 L 1058.874287 573.533875 " transform="matrix(0.0487062,0,0,0.0485437,-33.831598,-5.075825)"/>
<path style="fill:none;stroke-width:3;stroke-linecap:butt;stroke-linejoin:bevel;stroke:rgb(0%,0%,0%);stroke-opacity:1;stroke-miterlimit:4;" d="M 1112.608418 596.226063 L 1120.708638 602.019813 L 1123.194844 603.790125 L 1123.515645 594.858094 L 1124.397847 574.338562 L 1125.76125 540.461219 " transform="matrix(0.0487062,0,0,0.0485437,-33.831598,-5.075825)"/>
<path style="fill:none;stroke-width:3;stroke-linecap:butt;stroke-linejoin:bevel;stroke:rgb(0%,0%,0%);stroke-opacity:1;stroke-miterlimit:4;" d="M 1175.405171 564.1995 L 1186.071797 571.441688 L 1186.472798 565.004188 L 1189.520405 515.113563 L 1189.921406 508.676063 " transform="matrix(0.0487062,0,0,0.0485437,-33.831598,-5.075825)"/>
<path style="fill:none;stroke-width:3;stroke-linecap:butt;stroke-linejoin:bevel;stroke:rgb(0%,0%,0%);stroke-opacity:1;stroke-miterlimit:4;" d="M 1235.876118 533.379969 L 1246.542744 540.38075 L 1247.745747 525.494031 L 1250.793354 487.190906 L 1251.515156 478.178406 " transform="matrix(0.0487062,0,0,0.0485437,-33.831598,-5.075825)"/>
<path style="fill:none;stroke-width:3;stroke-linecap:butt;stroke-linejoin:bevel;stroke:rgb(0%,0%,0%);stroke-opacity:1;stroke-miterlimit:4;" d="M 1293.94106 503.687 L 1304.768086 510.446375 L 1309.660298 460.716688 L 1310.783101 448.887781 " transform="matrix(0.0487062,0,0,0.0485437,-33.831598,-5.075825)"/>
<path style="fill:none;stroke-width:3;stroke-linecap:butt;stroke-linejoin:bevel;stroke:rgb(0%,0%,0%);stroke-opacity:1;stroke-miterlimit:4;" d="M 1226.893696 650.381531 L 1237.159321 657.623719 L 1238.923726 635.977625 L 1241.570332 602.583094 L 1241.730732 600.169031 " transform="matrix(0.0487062,0,0,0.0485437,-33.831598,-5.075825)"/>
<path style="fill:none;stroke-width:3;stroke-linecap:butt;stroke-linejoin:bevel;stroke:rgb(0%,0%,0%);stroke-opacity:1;stroke-miterlimit:4;" d="M 1044.919453 131.197156 L 1045.160054 116.471375 " transform="matrix(0.0487062,0,0,0.0485437,-33.831598,-5.075825)"/>
<path style="fill:none;stroke-width:3;stroke-linecap:butt;stroke-linejoin:bevel;stroke:rgb(0%,0%,0%);stroke-opacity:1;stroke-miterlimit:4;" d="M 1319.364521 259.544813 L 1275.013813 236.450281 L 1230.743306 213.275281 L 1186.392598 190.18075 L 1142.04189 167.00575 L 1097.771382 143.911219 L 1053.420674 120.736219 L 1045.160054 116.471375 L 998.002339 133.047937 L 950.844624 149.704969 L 903.686909 166.281531 L 856.529194 182.938562 L 809.371479 199.515125 L 762.213765 216.172156 L 724.840474 229.288563 " transform="matrix(0.0487062,0,0,0.0485437,-33.831598,-5.075825)"/>
<path style="fill:none;stroke-width:3;stroke-linecap:butt;stroke-linejoin:bevel;stroke:rgb(0%,0%,0%);stroke-opacity:1;stroke-miterlimit:4;" d="M 1301.961079 267.108875 L 1257.770771 243.772938 L 1213.580464 220.356531 L 1169.390156 197.020594 L 1125.119648 173.604188 L 1080.929341 150.26825 L 1044.919453 131.197156 L 809.53188 215.287 L 762.374165 232.0245 L 740.559712 239.829969 " transform="matrix(0.0487062,0,0,0.0485437,-33.831598,-5.075825)"/>
<path style="fill:none;stroke-width:3;stroke-linecap:butt;stroke-linejoin:bevel;stroke:rgb(0%,0%,0%);stroke-opacity:1;stroke-miterlimit:4;" d="M 1251.595356 788.304969 L 1247.184346 838.034656 L 1245.259541 859.519813 " transform="matrix(0.0487062,0,0,0.0485437,-33.831598,-5.075825)"/>
<path style="fill:none;stroke-width:3;stroke-linecap:butt;stroke-linejoin:bevel;stroke:rgb(0%,0%,0%);stroke-opacity:1;stroke-miterlimit:4;" d="M 1351.123799 261.154188 L 1305.329487 281.271375 L 1278.462422 293.019813 L 1246.221943 307.101844 L 1231.545308 313.539344 L 1199.86623 327.460438 L 1161.289937 344.278406 L 1130.493062 357.797156 L 1110.763813 366.487781 L 1080.52834 379.684656 L 1034.734028 399.721375 L 1032.408223 400.767469 L 1023.2654 404.790906 L 981.481099 423.057313 L 977.070088 420.079969 L 968.087666 413.964344 L 926.704365 385.800281 L 918.122944 379.926063 L 909.060322 373.810438 L 826.454121 317.482313 L 812.338887 307.906531 L 803.115864 301.629969 L 785.792622 289.881531 L 776.6498 283.604969 L 735.266499 255.440906 L 694.605 227.759656 " transform="matrix(0.0487062,0,0,0.0485437,-33.831598,-5.075825)"/>
<path style="fill:none;stroke-width:3;stroke-linecap:butt;stroke-linejoin:bevel;stroke:rgb(0%,0%,0%);stroke-opacity:1;stroke-miterlimit:4;" d="M 1287.124043 575.947937 L 1285.279438 596.065125 L 1284.317036 606.123719 L 1283.033833 619.722938 L 1254.562764 635.253406 " transform="matrix(0.0487062,0,0,0.0485437,-33.831598,-5.075825)"/>
<path style="fill:none;stroke-width:3;stroke-linecap:butt;stroke-linejoin:bevel;stroke:rgb(0%,0%,0%);stroke-opacity:1;stroke-miterlimit:4;" d="M 1230.262104 606.284656 L 1227.535298 642.173719 L 1226.893696 650.381531 L 1220.39748 653.922156 L 1212.377461 658.267469 L 1196.658223 666.877625 " transform="matrix(0.0487062,0,0,0.0485437,-33.831598,-5.075825)"/>
<path style="fill:none;stroke-width:3;stroke-linecap:butt;stroke-linejoin:bevel;stroke:rgb(0%,0%,0%);stroke-opacity:1;stroke-miterlimit:4;" d="M 1171.154561 637.747938 L 1170.91396 642.576063 L 1169.710957 663.578406 L 1168.588154 682.166688 L 1136.427876 699.789344 " transform="matrix(0.0487062,0,0,0.0485437,-33.831598,-5.075825)"/>
<path style="fill:none;stroke-width:3;stroke-linecap:butt;stroke-linejoin:bevel;stroke:rgb(0%,0%,0%);stroke-opacity:1;stroke-miterlimit:4;" d="M 1109.801411 670.41825 L 1108.117207 715.239344 L 1073.871724 733.988563 " transform="matrix(0.0487062,0,0,0.0485437,-33.831598,-5.075825)"/>
<path style="fill:none;stroke-width:3;stroke-linecap:butt;stroke-linejoin:bevel;stroke:rgb(0%,0%,0%);stroke-opacity:1;stroke-miterlimit:4;" d="M 1045.962056 704.456531 L 1045.240254 749.679969 L 1008.829365 769.55575 " transform="matrix(0.0487062,0,0,0.0485437,-33.831598,-5.075825)"/>
<path style="fill:none;stroke-width:3;stroke-linecap:butt;stroke-linejoin:bevel;stroke:rgb(0%,0%,0%);stroke-opacity:1;stroke-miterlimit:4;" d="M 1298.592671 454.922938 L 1296.106465 480.833875 L 1295.224263 490.651063 L 1293.94106 503.687 L 1264.507588 518.734656 " transform="matrix(0.0487062,0,0,0.0485437,-33.831598,-5.075825)"/>
<path style="fill:none;stroke-width:3;stroke-linecap:butt;stroke-linejoin:bevel;stroke:rgb(0%,0%,0%);stroke-opacity:1;stroke-miterlimit:4;" d="M 1239.645527 484.133094 L 1235.956318 531.448719 L 1235.876118 533.379969 L 1229.139302 536.759656 L 1210.613057 546.254969 L 1204.517842 549.312781 " transform="matrix(0.0487062,0,0,0.0485437,-33.831598,-5.075825)"/>
<path style="fill:none;stroke-width:3;stroke-linecap:butt;stroke-linejoin:bevel;stroke:rgb(0%,0%,0%);stroke-opacity:1;stroke-miterlimit:4;" d="M 1178.292378 514.469812 L 1177.730977 524.287 L 1176.928975 537.242469 L 1175.806172 557.681531 L 1175.405171 564.1995 L 1149.821309 577.235437 L 1142.04189 581.178406 " transform="matrix(0.0487062,0,0,0.0485437,-33.831598,-5.075825)"/>
<path style="fill:none;stroke-width:3;stroke-linecap:butt;stroke-linejoin:bevel;stroke:rgb(0%,0%,0%);stroke-opacity:1;stroke-miterlimit:4;" d="M 1114.453022 546.013563 L 1112.929219 587.294031 L 1112.608418 596.226063 L 1091.836567 606.847938 L 1076.999531 614.412 " transform="matrix(0.0487062,0,0,0.0485437,-33.831598,-5.075825)"/>
<path style="fill:none;stroke-width:3;stroke-linecap:butt;stroke-linejoin:bevel;stroke:rgb(0%,0%,0%);stroke-opacity:1;stroke-miterlimit:4;" d="M 1047.967061 578.925281 L 1047.165059 628.896375 L 1047.165059 629.620594 L 1009.230366 648.933094 " transform="matrix(0.0487062,0,0,0.0485437,-33.831598,-5.075825)"/>
<path style="fill:none;stroke-width:3;stroke-linecap:butt;stroke-linejoin:bevel;stroke:rgb(0%,0%,0%);stroke-opacity:1;stroke-miterlimit:4;" d="M 1310.943501 323.919813 L 1307.895894 356.590125 L 1307.013691 365.9245 L 1305.810688 378.397156 L 1275.254414 392.720594 " transform="matrix(0.0487062,0,0,0.0485437,-33.831598,-5.075825)"/>
<path style="fill:none;stroke-width:3;stroke-linecap:butt;stroke-linejoin:bevel;stroke:rgb(0%,0%,0%);stroke-opacity:1;stroke-miterlimit:4;" d="M 1249.750752 351.601063 L 1249.429951 356.026844 L 1245.580342 405.917469 L 1245.500142 406.722156 L 1213.019063 422.091688 " transform="matrix(0.0487062,0,0,0.0485437,-33.831598,-5.075825)"/>
<path style="fill:none;stroke-width:3;stroke-linecap:butt;stroke-linejoin:bevel;stroke:rgb(0%,0%,0%);stroke-opacity:1;stroke-miterlimit:4;" d="M 1185.991597 380.489344 L 1185.991597 381.052625 L 1184.227192 411.791688 L 1183.505391 424.264344 L 1182.783589 436.254188 L 1180.136982 437.541688 L 1148.056904 452.589344 " transform="matrix(0.0487062,0,0,0.0485437,-33.831598,-5.075825)"/>
<path style="fill:none;stroke-width:3;stroke-linecap:butt;stroke-linejoin:bevel;stroke:rgb(0%,0%,0%);stroke-opacity:1;stroke-miterlimit:4;" d="M 1119.505635 410.584656 L 1117.66103 460.55575 L 1117.42043 466.99325 L 1105.711201 472.465125 L 1080.367939 484.454969 " transform="matrix(0.0487062,0,0,0.0485437,-33.831598,-5.075825)"/>
<path style="fill:none;stroke-width:3;stroke-linecap:butt;stroke-linejoin:bevel;stroke:rgb(0%,0%,0%);stroke-opacity:1;stroke-miterlimit:4;" d="M 1050.132466 442.047938 L 1049.651265 471.740906 L 1049.250264 499.100281 L 1031.28542 507.5495 L 1022.463398 511.653406 L 1009.631367 517.688562 " transform="matrix(0.0487062,0,0,0.0485437,-33.831598,-5.075825)"/>
<path style="fill:none;stroke-width:3;stroke-linecap:butt;stroke-linejoin:bevel;stroke:rgb(0%,0%,0%);stroke-opacity:1;stroke-miterlimit:4;" d="M 957.58144 456.0495 L 957.822041 472.867469 L 957.982441 481.075281 L 959.666646 482.282313 L 959.746846 482.362781 " transform="matrix(0.0487062,0,0,0.0485437,-33.831598,-5.075825)"/>
<path style="fill:none;stroke-width:3;stroke-linecap:butt;stroke-linejoin:bevel;stroke:rgb(0%,0%,0%);stroke-opacity:1;stroke-miterlimit:4;" d="M 959.426045 593.490125 L 959.666646 610.871375 L 961.35085 612.239344 " transform="matrix(0.0487062,0,0,0.0485437,-33.831598,-5.075825)"/>
<path style="fill:none;stroke-width:3;stroke-linecap:butt;stroke-linejoin:bevel;stroke:rgb(0%,0%,0%);stroke-opacity:1;stroke-miterlimit:4;" d="M 961.110249 719.584656 L 961.270649 730.367469 L 962.874653 731.735438 " transform="matrix(0.0487062,0,0,0.0485437,-33.831598,-5.075825)"/>
<path style="fill:none;stroke-width:3;stroke-linecap:butt;stroke-linejoin:bevel;stroke:rgb(0%,0%,0%);stroke-opacity:1;stroke-miterlimit:4;" d="M 962.634053 835.540125 L 962.714253 840.770594 L 964.238057 842.138563 " transform="matrix(0.0487062,0,0,0.0485437,-33.831598,-5.075825)"/>
</g>
</svg>
